<svg version="1" xmlns="http://www.w3.org/2000/svg" width="346.667" height="346.667" viewBox="0 0 260.000000 260.000000"><path d="M92.5 1.5C77.6 4.7 57.4 14.1 49.2 21.6c-3.6 3.2-4.5 4.6-4.4 7.1.1 4.3 1.8 7.2 4.8 8.3 4.6 1.8 7.6 1.1 12.8-2.9 5.5-4.2 18.5-11.1 21-11.1.8 0 1.7-.4 2.1-.9.6-1 12.5-3.9 18.8-4.5 8.1-.8 16.7 3.1 16.7 7.5 0 2.3-5.6 9.6-11.5 15C96 52.5 77 65.1 44.1 83.2c-6.8 3.7-13 7.6-13.7 8.5-2.2 2.9-1.7 7.7 1.1 10.7 1.3 1.4 3 2.6 3.7 2.7.7 0 2.4.2 3.8.3 1.4.1 6.3.6 11 1s9.2.9 10 1.1c.8.2 3.5.7 6 1 5.5.7 14 2.2 19.8 3.5 11 2.5 13.9 3.2 16.2 4 1.4.4 5.3 1.6 8.8 2.5 3.4 1 6.2 2.1 6.2 2.5 0 .3-3.3 1.6-7.2 2.9-9.7 3.1-33 12.3-42.6 16.8-27.8 13.2-50 31.6-59.7 49.5-8.1 15-9.5 29.1-4.1 40.1 9.6 19.7 37.2 30.4 75.5 29.3 59.9-1.7 109-29.9 118.5-68.2 5.9-23.6-2.5-45.3-24.2-62.7-1.9-1.5-3-2.7-2.6-2.7.4 0 7.9-1.3 16.8-3 8.9-1.6 17.8-3.2 19.9-3.5 2-.3 5.3-.7 7.2-1 1.9-.3 5.2-.7 7.3-1 2-.2 5.7-.7 8.2-1 2.5-.4 5.9-.8 7.5-1 1.7-.2 5.9-.7 9.5-1.1 9.9-.9 13.8-4.4 12.6-10.9-.8-3.9-4.3-6.6-8.9-6.7-5.3-.2-22.8 1.8-42.2 4.8-5.5.8-11.3 1.7-13 1.9-3.1.5-32.5 6.1-36 7-10.7 2.6-12 2.7-16.9.6-18.3-7.9-49.7-16.6-70.4-19.5-1.9-.2-3.6-.6-3.8-.8-.2-.3 1.5-1.5 3.9-2.8 19.5-10.8 45.4-29.7 55.4-40.4 9.9-10.6 13.2-18.2 11.8-27.4-.6-3.8-1.6-5.5-6.3-10.2-3.9-3.8-7.3-6.2-10.7-7.4-6.5-2.3-22.1-2.9-30-1.1zm62.3 136.4c13.7 9.3 21.2 18.4 24.2 29.4 7.3 26.6-14.4 53.5-53.8 66.6-39.2 13-85.1 10.6-100.7-5.5-13.6-13.9-.5-40.2 29.8-59.8 9.8-6.4 20.6-12.1 30.2-16.1 3.9-1.6 7.5-3.2 8-3.6 1.8-1.2 33.7-11.8 43-14.2 10.2-2.7 10.8-2.6 19.3 3.2z"/></svg>