<svg xmlns="http://www.w3.org/2000/svg" width="221" height="152" fill="none">
  <path fill="#000" fill-rule="evenodd" d="M29.6187 19.9942c2.8248-3.1693 9.0882-7.4107 15.4729-9.4358 6.6683-2.11501 10.8935-1.17472 12.8986 1.8998.5023.7703.8631 2.3368-1.0255 5.7421-1.8387 3.3155-5.2428 7.2296-9.7707 11.4428-8.9909 8.3659-21.3429 16.9424-30.8696 23.0727-1.6224 1.0439-2.3988 3.0058-1.9302 4.8772.4686 1.8715 2.0779 3.236 4.0008 3.3922 11.2385.9132 26.9565 3.9471 40.5363 9.9522-3.8539 1.3893-7.5878 2.8683-11.1785 4.4373C27.2106 84.351 10.5461 96.6318 3.62558 112.722.881946 119.101-.0584165 125.007.81523 130.316c.88355 5.369 3.56455 9.756 7.39078 13.097 7.46289 6.516 19.08529 8.952 30.76809 8.394 11.8293-.564 24.6127-4.223 35.0652-10.953 10.4848-6.751 18.8917-16.794 21.1563-30.099 1.7958-10.55-.4992-19.6119-5.4817-27.1529-2.4671-3.7338-5.5567-7.0436-9.0516-9.9729 12.7182-3.3521 26.3287-5.8766 40.1397-7.5558 30.022-3.6499 62.493-2.2934 93.317 5.7798 2.404.6296 4.864-.8089 5.494-3.2131.337-1.2901.685-1.7721.562-2.0391-.105-.2305-.561-.3007-1.675-.5925-20.173-5.2833-41.943-9.1154-62.942-10.1538.13-.1829.265-.3722.406-.5679 1.286-1.7824 2.817-3.7917 4.409-5.8786.27-.3553.543-.7128.816-1.0718 1.847-2.4257 3.733-4.9243 5.209-7.0802.737-1.0772 1.42-2.1386 1.961-3.1107.481-.8638 1.082-2.0585 1.32-3.2977.481-2.5088-.832-4.3654-1.955-5.3263-1.014-.8677-2.217-1.3677-3.136-1.6779-1.921-.6489-4.363-1.0329-6.726-1.271-4.807-.4846-10.536-.4796-14.182-.1675-2.476.2119-4.312 2.3911-4.1 4.8673.212 2.4763 2.391 4.3118 4.867 4.0999 3.083-.2639 8.253-.2745 12.513.1549.833.084 1.588.1809 2.255.2863-.044.0648-.088.1304-.133.1968-.037.0536-.074.1078-.111.1625-1.328 1.9401-3.079 4.2645-4.942 6.7116-.261.3418-.523.686-.786 1.0314l-.014.0181c-1.585 2.0791-3.203 4.2004-4.565 6.0895-1.344 1.8642-2.725 3.8822-3.511 5.5512-6.261-.0217-12.415.2333-18.396.8021 1.546-3.4918 3.599-7.0013 5.579-10.3859v-.0002c.359-.6134.715-1.2227 1.066-1.827 1.544-2.6626 3.216-5.6319 3.869-8.1507.326-1.2563.631-3.2215-.237-5.1816-1.009-2.2765-3.02-3.3431-4.832-3.7314-3.209-.6877-7.502-1.0324-11.523-1.0499-3.947-.0171-8.192.2762-11.156 1.1231-2.39.6828-3.773 3.1735-3.09 5.5631.682 2.3897 3.173 3.7734 5.563 3.0907 1.702-.4864 4.907-.7931 8.644-.7769 2.567.0111 5.115.1726 7.233.4447-.499 1.0489-1.246 2.411-2.256 4.1527-.331.5708-.685 1.1721-1.055 1.8007v.0002c-2.594 4.411-5.977 10.1613-7.858 16.0706-4.582.5982-9.148 1.2887-13.673 2.072 1.542-1.6288 1.661-4.1906.194-5.9618.005.0069-.029-.0339-.092-.1467-.062-.1119-.141-.274-.229-.4971-.18-.4541-.363-1.0684-.533-1.8576-.341-1.5879-.567-3.5944-.694-5.8678-.253-4.5397-.088-9.6294.078-13.57.089-2.1073-1.297-3.9936-3.335-4.5376-2.0378-.544-4.18.4003-5.1531 2.2716-1.8221 3.5041-6.9937 12.2673-13.8704 21.0036.412-4.0404 1.3305-8.9416 2.2476-12.9156.5589-2.4217-.9512-4.8378-3.3729-5.3967-2.4216-.5588-4.8378.9513-5.3966 3.3729-1.2597 5.4586-2.7166 13.3876-2.7027 18.8359.0035 1.3801.0987 2.8322.4098 4.1402.2616 1.0999.9163 3.1749 2.8789 4.4375 2.432 1.5645 4.9362.7922 6.3903-.0397 1.4077-.8054 2.6874-2.0787 3.8541-3.4676 3.3903-4.036 6.4671-8.1986 9.0931-12.0335.1544 1.968.397 3.9046.7744 5.6591.4499 2.0923 1.2094 4.5257 2.7216 6.3509.4217.509.9319.9015 1.4898 1.1735-9.1995 1.7526-18.1857 3.8953-26.7453 6.4318-.5726-.3295-1.1497-.652-1.7307-.9677C57.4145 59.546 43.3291 55.6317 31.2586 53.566c7.5092-5.209 15.5503-11.271 22.0662-17.3341 4.7638-4.4326 8.9847-9.1122 11.5105-13.6666 2.4761-4.4645 3.941-10.0438.6934-15.0235C59.9582-.99968 49.8501-.392717 42.3706 1.97958c-7.7632 2.46227-15.462 7.52884-19.4705 12.02622-1.6537 1.8553-1.4902 4.6999.3651 6.3535s4.6998 1.4901 6.3535-.3651zm21.7378 63.6275c5.7626-2.518 11.9439-4.8035 18.4381-6.8537 5.1797 3.3944 9.4531 7.3199 12.4103 11.7955 3.7508 5.6768 5.5225 12.4315 4.1183 20.6815-1.7353 10.195-8.2035 18.277-17.1562 24.042-8.985 5.785-20.2016 9.033-30.6222 9.531-10.5673.504-19.4448-1.841-24.4195-6.184-2.3925-2.089-3.9146-4.651-4.42951-7.78-.52478-3.189-.05889-7.33 2.19751-12.576 5.5598-12.927 19.6322-23.9908 39.4632-32.6563z" clip-rule="evenodd"/>
</svg>
